<mxfile host="app.diagrams.net" modified="2023-06-23T13:34:21.699Z" agent="Mozilla/5.0 (Windows NT 10.0; Win64; x64) AppleWebKit/537.36 (KHTML, like Gecko) Chrome/114.0.0.0 Safari/537.36 Edg/114.0.1823.51" etag="xwsQbH-25LrK6VNw1TF7" version="21.3.8" type="github">
  <diagram name="Page-1" id="Krhgzp0Fz4RxL69NAzW1">
    <mxGraphModel dx="739" dy="462" grid="1" gridSize="10" guides="1" tooltips="1" connect="1" arrows="1" fold="1" page="1" pageScale="1" pageWidth="850" pageHeight="1100" math="0" shadow="0">
      <root>
        <mxCell id="0" />
        <mxCell id="1" parent="0" />
        <mxCell id="oXbRPvjeUS8RgmXn9ZeF-1" value="Frame đọc từ camera (F)" style="rounded=1;whiteSpace=wrap;html=1;" vertex="1" parent="1">
          <mxGeometry x="39" y="222" width="120" height="60" as="geometry" />
        </mxCell>
        <mxCell id="oXbRPvjeUS8RgmXn9ZeF-2" value="Đọc ảnh BG1, BG2 và ảnh icon (E)" style="rounded=1;whiteSpace=wrap;html=1;" vertex="1" parent="1">
          <mxGeometry x="39" y="140" width="120" height="60" as="geometry" />
        </mxCell>
        <mxCell id="oXbRPvjeUS8RgmXn9ZeF-3" value="Resize" style="rounded=1;whiteSpace=wrap;html=1;" vertex="1" parent="1">
          <mxGeometry x="200" y="140" width="120" height="60" as="geometry" />
        </mxCell>
        <mxCell id="oXbRPvjeUS8RgmXn9ZeF-4" value="Thay đổi BG1 và detect khuôn mặt" style="rounded=1;whiteSpace=wrap;html=1;" vertex="1" parent="1">
          <mxGeometry x="200" y="222" width="120" height="60" as="geometry" />
        </mxCell>
      </root>
    </mxGraphModel>
  </diagram>
</mxfile>
